<?xml version="1.0" encoding="UTF-8" standalone="no"?>
<svg width="750px" height="7500px" viewBox="0 0 750 7500" version="1.1" xmlns="http://www.w3.org/2000/svg" xmlns:xlink="http://www.w3.org/1999/xlink" xmlns:sketch="http://www.bohemiancoding.com/sketch/ns">
    <!-- Generator: Sketch Beta 3.4 (15009) - http://www.bohemiancoding.com/sketch -->
    <title>Artboard 6 Copy 3</title>
    <desc>Created with Sketch Beta.</desc>
    <defs></defs>
    <g id="Page-1" stroke="none" stroke-width="1" fill="none" fill-rule="evenodd" sketch:type="MSPage">
        <g id="Artboard-6-Copy-3" sketch:type="MSArtboardGroup" fill="#FFFFFF">
            <path d="M529.986172,1330.26068 L529.986172,1319.93962 C531.211504,1317.96024 533.992063,1316.26362 536.819751,1316.26362 C541.39118,1316.26362 544.124611,1320.03387 544.124611,1325.07658 C544.124611,1330.11929 541.39118,1333.84242 536.819751,1333.84242 C533.992063,1333.84242 531.211504,1332.24006 529.986172,1330.26068 L529.986172,1330.26068 Z M529.986172,1336.43446 L529.986172,1333.04124 C531.682785,1335.35052 534.463345,1337 537.668058,1337 C543.606202,1337 547.800605,1332.4757 547.800605,1325.07658 C547.800605,1317.77172 543.65333,1313.10604 537.668058,1313.10604 C534.604729,1313.10604 531.82417,1314.61414 529.986172,1317.11193 L529.986172,1305 L526.451563,1305 L526.451563,1336.43446 L529.986172,1336.43446 Z M564.803387,1337 C571.731222,1337 576.06701,1331.62739 576.06701,1325.02946 C576.06701,1318.43152 571.731222,1313.10604 564.803387,1313.10604 C557.875552,1313.10604 553.539764,1318.43152 553.539764,1325.02946 C553.539764,1331.62739 557.875552,1337 564.803387,1337 L564.803387,1337 Z M564.803387,1333.84242 C559.94919,1333.84242 557.262887,1329.69514 557.262887,1325.02946 C557.262887,1320.4109 559.94919,1316.26362 564.803387,1316.26362 C569.657585,1316.26362 572.343888,1320.4109 572.343888,1325.02946 C572.343888,1329.69514 569.657585,1333.84242 564.803387,1333.84242 L564.803387,1333.84242 Z M593.069792,1337 C599.997627,1337 604.333415,1331.62739 604.333415,1325.02946 C604.333415,1318.43152 599.997627,1313.10604 593.069792,1313.10604 C586.141957,1313.10604 581.806169,1318.43152 581.806169,1325.02946 C581.806169,1331.62739 586.141957,1337 593.069792,1337 L593.069792,1337 Z M593.069792,1333.84242 C588.215595,1333.84242 585.529291,1329.69514 585.529291,1325.02946 C585.529291,1320.4109 588.215595,1316.26362 593.069792,1316.26362 C597.92399,1316.26362 600.610293,1320.4109 600.610293,1325.02946 C600.610293,1329.69514 597.92399,1333.84242 593.069792,1333.84242 L593.069792,1333.84242 Z" id="boo" opacity="0.85" sketch:type="MSShapeGroup"></path>
            <path d="M534.280887,2039.20766 L534.280887,2027.27393 C535.697676,2024.98527 538.912698,2023.02356 542.182212,2023.02356 C547.467927,2023.02356 550.628457,2027.38292 550.628457,2033.21355 C550.628457,2039.04418 547.467927,2043.34904 542.182212,2043.34904 C538.912698,2043.34904 535.697676,2041.49632 534.280887,2039.20766 L534.280887,2039.20766 Z M534.280887,2046.3461 L534.280887,2042.42268 C536.242595,2045.09278 539.457617,2047 543.163067,2047 C550.029046,2047 554.878825,2041.76878 554.878825,2033.21355 C554.878825,2024.7673 550.083538,2019.37261 543.163067,2019.37261 C539.621093,2019.37261 536.406071,2021.11635 534.280887,2024.00442 L534.280887,2010 L530.193994,2010 L530.193994,2046.3461 L534.280887,2046.3461 Z M574.538292,2047 C582.548601,2047 587.561856,2040.78792 587.561856,2033.15906 C587.561856,2025.53019 582.548601,2019.37261 574.538292,2019.37261 C566.527982,2019.37261 561.514728,2025.53019 561.514728,2033.15906 C561.514728,2040.78792 566.527982,2047 574.538292,2047 L574.538292,2047 Z M574.538292,2043.34904 C568.925626,2043.34904 565.819588,2038.55376 565.819588,2033.15906 C565.819588,2027.81885 568.925626,2023.02356 574.538292,2023.02356 C580.150957,2023.02356 583.256996,2027.81885 583.256996,2033.15906 C583.256996,2038.55376 580.150957,2043.34904 574.538292,2043.34904 L574.538292,2043.34904 Z M607.221322,2047 C615.231631,2047 620.244886,2040.78792 620.244886,2033.15906 C620.244886,2025.53019 615.231631,2019.37261 607.221322,2019.37261 C599.211013,2019.37261 594.197758,2025.53019 594.197758,2033.15906 C594.197758,2040.78792 599.211013,2047 607.221322,2047 L607.221322,2047 Z M607.221322,2043.34904 C601.608657,2043.34904 598.502618,2038.55376 598.502618,2033.15906 C598.502618,2027.81885 601.608657,2023.02356 607.221322,2023.02356 C612.833988,2023.02356 615.940026,2027.81885 615.940026,2033.15906 C615.940026,2038.55376 612.833988,2043.34904 607.221322,2043.34904 L607.221322,2043.34904 Z" id="boo" opacity="0.75" sketch:type="MSShapeGroup"></path>
            <path d="M215.255686,1904.15611 L215.255686,1896.73785 C216.136393,1895.31517 218.134921,1894.09573 220.167321,1894.09573 C223.453036,1894.09573 225.417689,1896.8056 225.417689,1900.43004 C225.417689,1904.05449 223.453036,1906.73049 220.167321,1906.73049 C218.134921,1906.73049 216.136393,1905.57879 215.255686,1904.15611 L215.255686,1904.15611 Z M215.255686,1908.59352 L215.255686,1906.15464 C216.475127,1907.81443 218.473654,1909 220.777041,1909 C225.045083,1909 228.05981,1905.74816 228.05981,1900.43004 C228.05981,1895.17968 225.078956,1891.82622 220.777041,1891.82622 C218.575274,1891.82622 216.576747,1892.91016 215.255686,1894.70545 L215.255686,1886 L212.715186,1886 L212.715186,1908.59352 L215.255686,1908.59352 Z M240.28056,1909 C245.259941,1909 248.376289,1905.13844 248.376289,1900.39617 C248.376289,1895.6539 245.259941,1891.82622 240.28056,1891.82622 C235.301178,1891.82622 232.184831,1895.6539 232.184831,1900.39617 C232.184831,1905.13844 235.301178,1909 240.28056,1909 L240.28056,1909 Z M240.28056,1906.73049 C236.791605,1906.73049 234.860825,1903.74963 234.860825,1900.39617 C234.860825,1897.07658 236.791605,1894.09573 240.28056,1894.09573 C243.769514,1894.09573 245.700295,1897.07658 245.700295,1900.39617 C245.700295,1903.74963 243.769514,1906.73049 240.28056,1906.73049 L240.28056,1906.73049 Z M260.597038,1909 C265.57642,1909 268.692767,1905.13844 268.692767,1900.39617 C268.692767,1895.6539 265.57642,1891.82622 260.597038,1891.82622 C255.617657,1891.82622 252.501309,1895.6539 252.501309,1900.39617 C252.501309,1905.13844 255.617657,1909 260.597038,1909 L260.597038,1909 Z M260.597038,1906.73049 C257.108084,1906.73049 255.177303,1903.74963 255.177303,1900.39617 C255.177303,1897.07658 257.108084,1894.09573 260.597038,1894.09573 C264.085992,1894.09573 266.016773,1897.07658 266.016773,1900.39617 C266.016773,1903.74963 264.085992,1906.73049 260.597038,1906.73049 L260.597038,1906.73049 Z" id="boo" sketch:type="MSShapeGroup"></path>
            <path d="M220.050401,2603.10309 L220.050401,2594.07216 C221.122566,2592.34021 223.555556,2590.85567 226.029782,2590.85567 C230.029782,2590.85567 232.421535,2594.15464 232.421535,2598.56701 C232.421535,2602.97938 230.029782,2606.23711 226.029782,2606.23711 C223.555556,2606.23711 221.122566,2604.83505 220.050401,2603.10309 L220.050401,2603.10309 Z M220.050401,2608.50515 L220.050401,2605.53608 C221.534937,2607.5567 223.967927,2609 226.77205,2609 C231.967927,2609 235.63803,2605.04124 235.63803,2598.56701 C235.63803,2592.17526 232.009164,2588.09278 226.77205,2588.09278 C224.091638,2588.09278 221.658648,2589.41237 220.050401,2591.59794 L220.050401,2581 L216.957617,2581 L216.957617,2608.50515 L220.050401,2608.50515 Z M250.515464,2609 C256.57732,2609 260.371134,2604.29897 260.371134,2598.52577 C260.371134,2592.75258 256.57732,2588.09278 250.515464,2588.09278 C244.453608,2588.09278 240.659794,2592.75258 240.659794,2598.52577 C240.659794,2604.29897 244.453608,2609 250.515464,2609 L250.515464,2609 Z M250.515464,2606.23711 C246.268041,2606.23711 243.917526,2602.60825 243.917526,2598.52577 C243.917526,2594.48454 246.268041,2590.85567 250.515464,2590.85567 C254.762887,2590.85567 257.113402,2594.48454 257.113402,2598.52577 C257.113402,2602.60825 254.762887,2606.23711 250.515464,2606.23711 L250.515464,2606.23711 Z M275.248568,2609 C281.310424,2609 285.104238,2604.29897 285.104238,2598.52577 C285.104238,2592.75258 281.310424,2588.09278 275.248568,2588.09278 C269.186712,2588.09278 265.392898,2592.75258 265.392898,2598.52577 C265.392898,2604.29897 269.186712,2609 275.248568,2609 L275.248568,2609 Z M275.248568,2606.23711 C271.001145,2606.23711 268.65063,2602.60825 268.65063,2598.52577 C268.65063,2594.48454 271.001145,2590.85567 275.248568,2590.85567 C279.495991,2590.85567 281.846506,2594.48454 281.846506,2598.52577 C281.846506,2602.60825 279.495991,2606.23711 275.248568,2606.23711 L275.248568,2606.23711 Z" id="boo" opacity="0.649603545" sketch:type="MSShapeGroup"></path>
            <path d="M539.075601,2747.15464 L539.075601,2733.60825 C540.683849,2731.01031 544.333333,2728.78351 548.044674,2728.78351 C554.044674,2728.78351 557.632302,2733.73196 557.632302,2740.35052 C557.632302,2746.96907 554.044674,2751.85567 548.044674,2751.85567 C544.333333,2751.85567 540.683849,2749.75258 539.075601,2747.15464 L539.075601,2747.15464 Z M539.075601,2755.25773 L539.075601,2750.80412 C541.302405,2753.83505 544.95189,2756 549.158076,2756 C556.95189,2756 562.457045,2750.06186 562.457045,2740.35052 C562.457045,2730.76289 557.013746,2724.63918 549.158076,2724.63918 C545.137457,2724.63918 541.487973,2726.61856 539.075601,2729.89691 L539.075601,2714 L534.436426,2714 L534.436426,2755.25773 L539.075601,2755.25773 Z M584.773196,2756 C593.865979,2756 599.556701,2748.94845 599.556701,2740.28866 C599.556701,2731.62887 593.865979,2724.63918 584.773196,2724.63918 C575.680412,2724.63918 569.989691,2731.62887 569.989691,2740.28866 C569.989691,2748.94845 575.680412,2756 584.773196,2756 L584.773196,2756 Z M584.773196,2751.85567 C578.402062,2751.85567 574.876289,2746.41237 574.876289,2740.28866 C574.876289,2734.2268 578.402062,2728.78351 584.773196,2728.78351 C591.14433,2728.78351 594.670103,2734.2268 594.670103,2740.28866 C594.670103,2746.41237 591.14433,2751.85567 584.773196,2751.85567 L584.773196,2751.85567 Z M621.872852,2756 C630.965636,2756 636.656357,2748.94845 636.656357,2740.28866 C636.656357,2731.62887 630.965636,2724.63918 621.872852,2724.63918 C612.780069,2724.63918 607.089347,2731.62887 607.089347,2740.28866 C607.089347,2748.94845 612.780069,2756 621.872852,2756 L621.872852,2756 Z M621.872852,2751.85567 C615.501718,2751.85567 611.975945,2746.41237 611.975945,2740.28866 C611.975945,2734.2268 615.501718,2728.78351 621.872852,2728.78351 C628.243986,2728.78351 631.769759,2734.2268 631.769759,2740.28866 C631.769759,2746.41237 628.243986,2751.85567 621.872852,2751.85567 L621.872852,2751.85567 Z" id="boo" opacity="0.5" sketch:type="MSShapeGroup"></path>
            <path d="M120.13983,2869.99705 L120.13983,2857.7408 C121.594911,2855.39028 124.896825,2853.37555 128.254705,2853.37555 C133.683276,2853.37555 136.929226,2857.85272 136.929226,2863.84094 C136.929226,2869.82916 133.683276,2874.25037 128.254705,2874.25037 C124.896825,2874.25037 121.594911,2872.34757 120.13983,2869.99705 L120.13983,2869.99705 Z M120.13983,2877.32842 L120.13983,2873.29897 C122.154557,2876.04124 125.456472,2878 129.262068,2878 C136.313615,2878 141.294469,2872.62739 141.294469,2863.84094 C141.294469,2855.16642 136.369579,2849.62592 129.262068,2849.62592 C125.624366,2849.62592 122.322451,2851.41679 120.13983,2854.38292 L120.13983,2840 L115.942481,2840 L115.942481,2877.32842 L120.13983,2877.32842 Z M161.485272,2878 C169.712077,2878 174.860825,2871.62003 174.860825,2863.78498 C174.860825,2855.94993 169.712077,2849.62592 161.485272,2849.62592 C153.258468,2849.62592 148.10972,2855.94993 148.10972,2863.78498 C148.10972,2871.62003 153.258468,2878 161.485272,2878 L161.485272,2878 Z M161.485272,2874.25037 C155.720913,2874.25037 152.530928,2869.32548 152.530928,2863.78498 C152.530928,2858.30044 155.720913,2853.37555 161.485272,2853.37555 C167.249632,2853.37555 170.439617,2858.30044 170.439617,2863.78498 C170.439617,2869.32548 167.249632,2874.25037 161.485272,2874.25037 L161.485272,2874.25037 Z M195.051628,2878 C203.278432,2878 208.42718,2871.62003 208.42718,2863.78498 C208.42718,2855.94993 203.278432,2849.62592 195.051628,2849.62592 C186.824824,2849.62592 181.676076,2855.94993 181.676076,2863.78498 C181.676076,2871.62003 186.824824,2878 195.051628,2878 L195.051628,2878 Z M195.051628,2874.25037 C189.287269,2874.25037 186.097284,2869.32548 186.097284,2863.78498 C186.097284,2858.30044 189.287269,2853.37555 195.051628,2853.37555 C200.815988,2853.37555 204.005973,2858.30044 204.005973,2863.78498 C204.005973,2869.32548 200.815988,2874.25037 195.051628,2874.25037 L195.051628,2874.25037 Z" id="boo" sketch:type="MSShapeGroup"></path>
            <path d="M542.729259,3455.89102 L542.729259,3440.40943 C544.567256,3437.44035 548.738095,3434.89543 552.979627,3434.89543 C559.83677,3434.89543 563.936917,3440.55081 563.936917,3448.11487 C563.936917,3455.67894 559.83677,3461.26362 552.979627,3461.26362 C548.738095,3461.26362 544.567256,3458.86009 542.729259,3455.89102 L542.729259,3455.89102 Z M542.729259,3465.15169 L542.729259,3460.06186 C545.274178,3463.52577 549.445017,3466 554.252086,3466 C563.159303,3466 569.450908,3459.21355 569.450908,3448.11487 C569.450908,3437.15758 563.229995,3430.15906 554.252086,3430.15906 C549.657094,3430.15906 545.486254,3432.42121 542.729259,3436.16789 L542.729259,3418 L537.427344,3418 L537.427344,3465.15169 L542.729259,3465.15169 Z M594.955081,3466 C605.346834,3466 611.850515,3457.94109 611.850515,3448.04418 C611.850515,3438.14728 605.346834,3430.15906 594.955081,3430.15906 C584.563328,3430.15906 578.059647,3438.14728 578.059647,3448.04418 C578.059647,3457.94109 584.563328,3466 594.955081,3466 L594.955081,3466 Z M594.955081,3461.26362 C587.673785,3461.26362 583.64433,3455.04271 583.64433,3448.04418 C583.64433,3441.11635 587.673785,3434.89543 594.955081,3434.89543 C602.236377,3434.89543 606.265832,3441.11635 606.265832,3448.04418 C606.265832,3455.04271 602.236377,3461.26362 594.955081,3461.26362 L594.955081,3461.26362 Z M637.354688,3466 C647.746441,3466 654.250123,3457.94109 654.250123,3448.04418 C654.250123,3438.14728 647.746441,3430.15906 637.354688,3430.15906 C626.962936,3430.15906 620.459254,3438.14728 620.459254,3448.04418 C620.459254,3457.94109 626.962936,3466 637.354688,3466 L637.354688,3466 Z M637.354688,3461.26362 C630.073392,3461.26362 626.043937,3455.04271 626.043937,3448.04418 C626.043937,3441.11635 630.073392,3434.89543 637.354688,3434.89543 C644.635984,3434.89543 648.665439,3441.11635 648.665439,3448.04418 C648.665439,3455.04271 644.635984,3461.26362 637.354688,3461.26362 L637.354688,3461.26362 Z" id="boo" opacity="0.35" sketch:type="MSShapeGroup"></path>
            <path d="M223.345115,3301.05007 L223.345115,3290.40648 C224.608738,3288.36524 227.47619,3286.61561 230.392243,3286.61561 C235.106529,3286.61561 237.92538,3290.50368 237.92538,3295.70398 C237.92538,3300.90427 235.106529,3304.74374 230.392243,3304.74374 C227.47619,3304.74374 224.608738,3303.09131 223.345115,3301.05007 L223.345115,3301.05007 Z M223.345115,3307.41679 L223.345115,3303.91753 C225.094747,3306.29897 227.962199,3308 231.267059,3308 C237.390771,3308 241.716249,3303.33432 241.716249,3295.70398 C241.716249,3288.17084 237.439372,3283.35935 231.267059,3283.35935 C228.108002,3283.35935 225.24055,3284.91458 223.345115,3287.49043 L223.345115,3275 L219.700049,3275 L219.700049,3307.41679 L223.345115,3307.41679 Z M259.250368,3308 C266.394698,3308 270.865979,3302.4595 270.865979,3295.65538 C270.865979,3288.85125 266.394698,3283.35935 259.250368,3283.35935 C252.106038,3283.35935 247.634757,3288.85125 247.634757,3295.65538 C247.634757,3302.4595 252.106038,3308 259.250368,3308 L259.250368,3308 Z M259.250368,3304.74374 C254.244477,3304.74374 251.474227,3300.46686 251.474227,3295.65538 C251.474227,3290.89249 254.244477,3286.61561 259.250368,3286.61561 C264.256259,3286.61561 267.02651,3290.89249 267.02651,3295.65538 C267.02651,3300.46686 264.256259,3304.74374 259.250368,3304.74374 L259.250368,3304.74374 Z M288.400098,3308 C295.544428,3308 300.015709,3302.4595 300.015709,3295.65538 C300.015709,3288.85125 295.544428,3283.35935 288.400098,3283.35935 C281.255768,3283.35935 276.784487,3288.85125 276.784487,3295.65538 C276.784487,3302.4595 281.255768,3308 288.400098,3308 L288.400098,3308 Z M288.400098,3304.74374 C283.394207,3304.74374 280.623957,3300.46686 280.623957,3295.65538 C280.623957,3290.89249 283.394207,3286.61561 288.400098,3286.61561 C293.405989,3286.61561 296.17624,3290.89249 296.17624,3295.65538 C296.17624,3300.46686 293.405989,3304.74374 288.400098,3304.74374 L288.400098,3304.74374 Z" id="boo" opacity="0.7" sketch:type="MSShapeGroup"></path>
            <path d="M125.575601,3581.15464 L125.575601,3567.60825 C127.183849,3565.01031 130.833333,3562.78351 134.544674,3562.78351 C140.544674,3562.78351 144.132302,3567.73196 144.132302,3574.35052 C144.132302,3580.96907 140.544674,3585.85567 134.544674,3585.85567 C130.833333,3585.85567 127.183849,3583.75258 125.575601,3581.15464 L125.575601,3581.15464 Z M125.575601,3589.25773 L125.575601,3584.80412 C127.802405,3587.83505 131.45189,3590 135.658076,3590 C143.45189,3590 148.957045,3584.06186 148.957045,3574.35052 C148.957045,3564.76289 143.513746,3558.63918 135.658076,3558.63918 C131.637457,3558.63918 127.987973,3560.61856 125.575601,3563.89691 L125.575601,3548 L120.936426,3548 L120.936426,3589.25773 L125.575601,3589.25773 Z M171.273196,3590 C180.365979,3590 186.056701,3582.94845 186.056701,3574.28866 C186.056701,3565.62887 180.365979,3558.63918 171.273196,3558.63918 C162.180412,3558.63918 156.489691,3565.62887 156.489691,3574.28866 C156.489691,3582.94845 162.180412,3590 171.273196,3590 L171.273196,3590 Z M171.273196,3585.85567 C164.902062,3585.85567 161.376289,3580.41237 161.376289,3574.28866 C161.376289,3568.2268 164.902062,3562.78351 171.273196,3562.78351 C177.64433,3562.78351 181.170103,3568.2268 181.170103,3574.28866 C181.170103,3580.41237 177.64433,3585.85567 171.273196,3585.85567 L171.273196,3585.85567 Z M208.372852,3590 C217.465636,3590 223.156357,3582.94845 223.156357,3574.28866 C223.156357,3565.62887 217.465636,3558.63918 208.372852,3558.63918 C199.280069,3558.63918 193.589347,3565.62887 193.589347,3574.28866 C193.589347,3582.94845 199.280069,3590 208.372852,3590 L208.372852,3590 Z M208.372852,3585.85567 C202.001718,3585.85567 198.475945,3580.41237 198.475945,3574.28866 C198.475945,3568.2268 202.001718,3562.78351 208.372852,3562.78351 C214.743986,3562.78351 218.269759,3568.2268 218.269759,3574.28866 C218.269759,3580.41237 214.743986,3585.85567 208.372852,3585.85567 L208.372852,3585.85567 Z" id="boo" opacity="0.9" sketch:type="MSShapeGroup"></path>
            <path d="M229.280887,4000.20766 L229.280887,3988.27393 C230.697676,3985.98527 233.912698,3984.02356 237.182212,3984.02356 C242.467927,3984.02356 245.628457,3988.38292 245.628457,3994.21355 C245.628457,4000.04418 242.467927,4004.34904 237.182212,4004.34904 C233.912698,4004.34904 230.697676,4002.49632 229.280887,4000.20766 L229.280887,4000.20766 Z M229.280887,4007.3461 L229.280887,4003.42268 C231.242595,4006.09278 234.457617,4008 238.163067,4008 C245.029046,4008 249.878825,4002.76878 249.878825,3994.21355 C249.878825,3985.7673 245.083538,3980.37261 238.163067,3980.37261 C234.621093,3980.37261 231.406071,3982.11635 229.280887,3985.00442 L229.280887,3971 L225.193994,3971 L225.193994,4007.3461 L229.280887,4007.3461 Z M269.538292,4008 C277.548601,4008 282.561856,4001.78792 282.561856,3994.15906 C282.561856,3986.53019 277.548601,3980.37261 269.538292,3980.37261 C261.527982,3980.37261 256.514728,3986.53019 256.514728,3994.15906 C256.514728,4001.78792 261.527982,4008 269.538292,4008 L269.538292,4008 Z M269.538292,4004.34904 C263.925626,4004.34904 260.819588,3999.55376 260.819588,3994.15906 C260.819588,3988.81885 263.925626,3984.02356 269.538292,3984.02356 C275.150957,3984.02356 278.256996,3988.81885 278.256996,3994.15906 C278.256996,3999.55376 275.150957,4004.34904 269.538292,4004.34904 L269.538292,4004.34904 Z M302.221322,4008 C310.231631,4008 315.244886,4001.78792 315.244886,3994.15906 C315.244886,3986.53019 310.231631,3980.37261 302.221322,3980.37261 C294.211013,3980.37261 289.197758,3986.53019 289.197758,3994.15906 C289.197758,4001.78792 294.211013,4008 302.221322,4008 L302.221322,4008 Z M302.221322,4004.34904 C296.608657,4004.34904 293.502618,3999.55376 293.502618,3994.15906 C293.502618,3988.81885 296.608657,3984.02356 302.221322,3984.02356 C307.833988,3984.02356 310.940026,3988.81885 310.940026,3994.15906 C310.940026,3999.55376 307.833988,4004.34904 302.221322,4004.34904 L302.221322,4004.34904 Z" id="boo" opacity="0.5" sketch:type="MSShapeGroup"></path>
            <path d="M547.66503,4165.0486 L547.66503,4148.27688 C549.656194,4145.06038 554.174603,4142.30339 558.769596,4142.30339 C566.198167,4142.30339 570.639993,4148.43004 570.639993,4156.62445 C570.639993,4164.81885 566.198167,4170.86892 558.769596,4170.86892 C554.174603,4170.86892 549.656194,4168.2651 547.66503,4165.0486 L547.66503,4165.0486 Z M547.66503,4175.081 L547.66503,4169.56701 C550.422026,4173.31959 554.940435,4176 560.148094,4176 C569.797578,4176 576.613484,4168.64801 576.613484,4156.62445 C576.613484,4144.75405 569.874161,4137.17231 560.148094,4137.17231 C555.170185,4137.17231 550.651775,4139.62297 547.66503,4143.68189 L547.66503,4124 L541.921289,4124 L541.921289,4175.081 L547.66503,4175.081 Z M604.243004,4176 C615.500736,4176 622.546392,4167.26951 622.546392,4156.54786 C622.546392,4145.82622 615.500736,4137.17231 604.243004,4137.17231 C592.985272,4137.17231 585.939617,4145.82622 585.939617,4156.54786 C585.939617,4167.26951 592.985272,4176 604.243004,4176 L604.243004,4176 Z M604.243004,4170.86892 C596.354934,4170.86892 591.989691,4164.1296 591.989691,4156.54786 C591.989691,4149.04271 596.354934,4142.30339 604.243004,4142.30339 C612.131075,4142.30339 616.496318,4149.04271 616.496318,4156.54786 C616.496318,4164.1296 612.131075,4170.86892 604.243004,4170.86892 L604.243004,4170.86892 Z M650.175912,4176 C661.433644,4176 668.4793,4167.26951 668.4793,4156.54786 C668.4793,4145.82622 661.433644,4137.17231 650.175912,4137.17231 C638.91818,4137.17231 631.872525,4145.82622 631.872525,4156.54786 C631.872525,4167.26951 638.91818,4176 650.175912,4176 L650.175912,4176 Z M650.175912,4170.86892 C642.287842,4170.86892 637.922599,4164.1296 637.922599,4156.54786 C637.922599,4149.04271 642.287842,4142.30339 650.175912,4142.30339 C658.063983,4142.30339 662.429226,4149.04271 662.429226,4156.54786 C662.429226,4164.1296 658.063983,4170.86892 650.175912,4170.86892 L650.175912,4170.86892 Z" id="boo" opacity="0.2" sketch:type="MSShapeGroup"></path>
            <path d="M131.65243,4290.52283 L131.65243,4276.00884 C133.375552,4273.22533 137.285714,4270.83947 141.26215,4270.83947 C147.690722,4270.83947 151.53461,4276.14138 151.53461,4283.2327 C151.53461,4290.32401 147.690722,4295.55965 141.26215,4295.55965 C137.285714,4295.55965 133.375552,4293.30633 131.65243,4290.52283 L131.65243,4290.52283 Z M131.65243,4299.20471 L131.65243,4294.43299 C134.038292,4297.68041 137.948454,4300 142.455081,4300 C150.805596,4300 156.703976,4293.6377 156.703976,4283.2327 C156.703976,4272.96024 150.87187,4266.39912 142.455081,4266.39912 C138.147275,4266.39912 134.237113,4268.51988 131.65243,4272.0324 L131.65243,4255 L126.681885,4255 L126.681885,4299.20471 L131.65243,4299.20471 Z M180.614138,4300 C190.356406,4300 196.453608,4292.44477 196.453608,4283.16642 C196.453608,4273.88807 190.356406,4266.39912 180.614138,4266.39912 C170.87187,4266.39912 164.774669,4273.88807 164.774669,4283.16642 C164.774669,4292.44477 170.87187,4300 180.614138,4300 L180.614138,4300 Z M180.614138,4295.55965 C173.787923,4295.55965 170.010309,4289.72754 170.010309,4283.16642 C170.010309,4276.67158 173.787923,4270.83947 180.614138,4270.83947 C187.440353,4270.83947 191.217968,4276.67158 191.217968,4283.16642 C191.217968,4289.72754 187.440353,4295.55965 180.614138,4295.55965 L180.614138,4295.55965 Z M220.36377,4300 C230.106038,4300 236.20324,4292.44477 236.20324,4283.16642 C236.20324,4273.88807 230.106038,4266.39912 220.36377,4266.39912 C210.621502,4266.39912 204.5243,4273.88807 204.5243,4283.16642 C204.5243,4292.44477 210.621502,4300 220.36377,4300 L220.36377,4300 Z M220.36377,4295.55965 C213.537555,4295.55965 209.759941,4289.72754 209.759941,4283.16642 C209.759941,4276.67158 213.537555,4270.83947 220.36377,4270.83947 C227.189985,4270.83947 230.967599,4276.67158 230.967599,4283.16642 C230.967599,4289.72754 227.189985,4295.55965 220.36377,4295.55965 L220.36377,4295.55965 Z" id="boo" opacity="0.65" sketch:type="MSShapeGroup"></path>
            <path d="M536.909344,4390.89249 L536.909344,4381.53903 C538.0198,4379.74521 540.539683,4378.20766 543.102275,4378.20766 C547.245132,4378.20766 549.722304,4381.62445 549.722304,4386.1944 C549.722304,4390.76436 547.245132,4394.13844 543.102275,4394.13844 C540.539683,4394.13844 538.0198,4392.6863 536.909344,4390.89249 L536.909344,4390.89249 Z M536.909344,4396.48748 L536.909344,4393.41237 C538.446899,4395.50515 540.966781,4397 543.871052,4397 C549.252495,4397 553.053674,4392.89985 553.053674,4386.1944 C553.053674,4379.57437 549.295205,4375.3461 543.871052,4375.3461 C541.094911,4375.3461 538.575029,4376.71281 536.909344,4378.97644 L536.909344,4368 L533.706104,4368 L533.706104,4396.48748 L536.909344,4396.48748 Z M568.462445,4397 C574.740795,4397 578.670103,4392.13108 578.670103,4386.15169 C578.670103,4380.17231 574.740795,4375.3461 568.462445,4375.3461 C562.184094,4375.3461 558.254786,4380.17231 558.254786,4386.15169 C558.254786,4392.13108 562.184094,4397 568.462445,4397 L568.462445,4397 Z M568.462445,4394.13844 C564.063328,4394.13844 561.628866,4390.37997 561.628866,4386.15169 C561.628866,4381.96613 564.063328,4378.20766 568.462445,4378.20766 C572.861561,4378.20766 575.296024,4381.96613 575.296024,4386.15169 C575.296024,4390.37997 572.861561,4394.13844 568.462445,4394.13844 L568.462445,4394.13844 Z M594.078874,4397 C600.357225,4397 604.286532,4392.13108 604.286532,4386.15169 C604.286532,4380.17231 600.357225,4375.3461 594.078874,4375.3461 C587.800524,4375.3461 583.871216,4380.17231 583.871216,4386.15169 C583.871216,4392.13108 587.800524,4397 594.078874,4397 L594.078874,4397 Z M594.078874,4394.13844 C589.679758,4394.13844 587.245295,4390.37997 587.245295,4386.15169 C587.245295,4381.96613 589.679758,4378.20766 594.078874,4378.20766 C598.477991,4378.20766 600.912453,4381.96613 600.912453,4386.15169 C600.912453,4390.37997 598.477991,4394.13844 594.078874,4394.13844 L594.078874,4394.13844 Z" id="boo" sketch:type="MSShapeGroup"></path>
            <path d="M234.216658,4698.36524 L234.216658,4685.14138 C235.786614,4682.6053 239.349206,4680.43152 242.972181,4680.43152 C248.829324,4680.43152 252.331533,4685.26215 252.331533,4691.72312 C252.331533,4698.18409 248.829324,4702.95434 242.972181,4702.95434 C239.349206,4702.95434 235.786614,4700.90133 234.216658,4698.36524 L234.216658,4698.36524 Z M234.216658,4706.27541 L234.216658,4701.92784 C236.390443,4704.8866 239.953036,4707 244.059074,4707 C251.667321,4707 257.041401,4701.20324 257.041401,4691.72312 C257.041401,4682.36377 251.727704,4676.38586 244.059074,4676.38586 C240.134184,4676.38586 236.571592,4678.31811 234.216658,4681.51841 L234.216658,4666 L229.68794,4666 L229.68794,4706.27541 L234.216658,4706.27541 Z M278.826215,4707 C287.702504,4707 293.257732,4700.11635 293.257732,4691.66274 C293.257732,4683.20913 287.702504,4676.38586 278.826215,4676.38586 C269.949926,4676.38586 264.394698,4683.20913 264.394698,4691.66274 C264.394698,4700.11635 269.949926,4707 278.826215,4707 L278.826215,4707 Z M278.826215,4702.95434 C272.606775,4702.95434 269.164948,4697.64065 269.164948,4691.66274 C269.164948,4685.74521 272.606775,4680.43152 278.826215,4680.43152 C285.045655,4680.43152 288.487482,4685.74521 288.487482,4691.66274 C288.487482,4697.64065 285.045655,4702.95434 278.826215,4702.95434 L278.826215,4702.95434 Z M315.042546,4707 C323.918835,4707 329.474063,4700.11635 329.474063,4691.66274 C329.474063,4683.20913 323.918835,4676.38586 315.042546,4676.38586 C306.166258,4676.38586 300.611029,4683.20913 300.611029,4691.66274 C300.611029,4700.11635 306.166258,4707 315.042546,4707 L315.042546,4707 Z M315.042546,4702.95434 C308.823106,4702.95434 305.38128,4697.64065 305.38128,4691.66274 C305.38128,4685.74521 308.823106,4680.43152 315.042546,4680.43152 C321.261987,4680.43152 324.703813,4685.74521 324.703813,4691.66274 C324.703813,4697.64065 321.261987,4702.95434 315.042546,4702.95434 L315.042546,4702.95434 Z" id="boo" opacity="0.4" sketch:type="MSShapeGroup"></path>
            <path d="M138.229259,5000.89102 L138.229259,4985.40943 C140.067256,4982.44035 144.238095,4979.89543 148.479627,4979.89543 C155.33677,4979.89543 159.436917,4985.55081 159.436917,4993.11487 C159.436917,5000.67894 155.33677,5006.26362 148.479627,5006.26362 C144.238095,5006.26362 140.067256,5003.86009 138.229259,5000.89102 L138.229259,5000.89102 Z M138.229259,5010.15169 L138.229259,5005.06186 C140.774178,5008.52577 144.945017,5011 149.752086,5011 C158.659303,5011 164.950908,5004.21355 164.950908,4993.11487 C164.950908,4982.15758 158.729995,4975.15906 149.752086,4975.15906 C145.157094,4975.15906 140.986254,4977.42121 138.229259,4981.16789 L138.229259,4963 L132.927344,4963 L132.927344,5010.15169 L138.229259,5010.15169 Z M190.455081,5011 C200.846834,5011 207.350515,5002.94109 207.350515,4993.04418 C207.350515,4983.14728 200.846834,4975.15906 190.455081,4975.15906 C180.063328,4975.15906 173.559647,4983.14728 173.559647,4993.04418 C173.559647,5002.94109 180.063328,5011 190.455081,5011 L190.455081,5011 Z M190.455081,5006.26362 C183.173785,5006.26362 179.14433,5000.04271 179.14433,4993.04418 C179.14433,4986.11635 183.173785,4979.89543 190.455081,4979.89543 C197.736377,4979.89543 201.765832,4986.11635 201.765832,4993.04418 C201.765832,5000.04271 197.736377,5006.26362 190.455081,5006.26362 L190.455081,5006.26362 Z M232.854688,5011 C243.246441,5011 249.750123,5002.94109 249.750123,4993.04418 C249.750123,4983.14728 243.246441,4975.15906 232.854688,4975.15906 C222.462936,4975.15906 215.959254,4983.14728 215.959254,4993.04418 C215.959254,5002.94109 222.462936,5011 232.854688,5011 L232.854688,5011 Z M232.854688,5006.26362 C225.573392,5006.26362 221.543937,5000.04271 221.543937,4993.04418 C221.543937,4986.11635 225.573392,4979.89543 232.854688,4979.89543 C240.135984,4979.89543 244.165439,4986.11635 244.165439,4993.04418 C244.165439,5000.04271 240.135984,5006.26362 232.854688,5006.26362 L232.854688,5006.26362 Z" id="boo" opacity="0.5" sketch:type="MSShapeGroup"></path>
            <path d="M540.204058,5100.83947 L540.204058,5089.87334 C541.505973,5087.77025 544.460317,5085.9676 547.464736,5085.9676 C552.321879,5085.9676 555.22615,5089.97349 555.22615,5095.33137 C555.22615,5100.68925 552.321879,5104.64507 547.464736,5104.64507 C544.460317,5104.64507 541.505973,5102.94256 540.204058,5100.83947 L540.204058,5100.83947 Z M540.204058,5107.39912 L540.204058,5103.79381 C542.006709,5106.24742 544.961054,5108 548.366061,5108 C554.67534,5108 559.131893,5103.19293 559.131893,5095.33137 C559.131893,5087.56996 554.725413,5082.61267 548.366061,5082.61267 C545.111275,5082.61267 542.15693,5084.21502 540.204058,5086.86892 L540.204058,5074 L536.448535,5074 L536.448535,5107.39912 L540.204058,5107.39912 Z M577.197349,5108 C584.558174,5108 589.164948,5102.29161 589.164948,5095.2813 C589.164948,5088.27099 584.558174,5082.61267 577.197349,5082.61267 C569.836524,5082.61267 565.22975,5088.27099 565.22975,5095.2813 C565.22975,5102.29161 569.836524,5108 577.197349,5108 L577.197349,5108 Z M577.197349,5104.64507 C572.039764,5104.64507 569.185567,5100.23859 569.185567,5095.2813 C569.185567,5090.37408 572.039764,5085.9676 577.197349,5085.9676 C582.354934,5085.9676 585.209131,5090.37408 585.209131,5095.2813 C585.209131,5100.23859 582.354934,5104.64507 577.197349,5104.64507 L577.197349,5104.64507 Z M607.230404,5108 C614.591229,5108 619.198004,5102.29161 619.198004,5095.2813 C619.198004,5088.27099 614.591229,5082.61267 607.230404,5082.61267 C599.869579,5082.61267 595.262805,5088.27099 595.262805,5095.2813 C595.262805,5102.29161 599.869579,5108 607.230404,5108 L607.230404,5108 Z M607.230404,5104.64507 C602.07282,5104.64507 599.218622,5100.23859 599.218622,5095.2813 C599.218622,5090.37408 602.07282,5085.9676 607.230404,5085.9676 C612.387989,5085.9676 615.242186,5090.37408 615.242186,5095.2813 C615.242186,5100.23859 612.387989,5104.64507 607.230404,5104.64507 L607.230404,5104.64507 Z" id="boo" opacity="0.76" sketch:type="MSShapeGroup"></path>
            <path d="M237.511373,5397.31222 L237.511373,5382.4757 C239.272787,5379.63034 243.269841,5377.19146 247.334642,5377.19146 C253.906071,5377.19146 257.835379,5382.61119 257.835379,5389.86009 C257.835379,5397.10898 253.906071,5402.46097 247.334642,5402.46097 C243.269841,5402.46097 239.272787,5400.15758 237.511373,5397.31222 L237.511373,5397.31222 Z M237.511373,5406.18704 L237.511373,5401.30928 C239.950254,5404.62887 243.947308,5407 248.554083,5407 C257.090165,5407 263.11962,5400.49632 263.11962,5389.86009 C263.11962,5379.35935 257.157912,5372.65243 248.554083,5372.65243 C244.150548,5372.65243 240.153494,5374.82032 237.511373,5378.4109 L237.511373,5361 L232.430371,5361 L232.430371,5406.18704 L237.511373,5406.18704 Z M287.561119,5407 C297.519882,5407 303.752577,5399.27688 303.752577,5389.79234 C303.752577,5380.30781 297.519882,5372.65243 287.561119,5372.65243 C277.602356,5372.65243 271.369661,5380.30781 271.369661,5389.79234 C271.369661,5399.27688 277.602356,5407 287.561119,5407 L287.561119,5407 Z M287.561119,5402.46097 C280.583211,5402.46097 276.721649,5396.49926 276.721649,5389.79234 C276.721649,5383.15317 280.583211,5377.19146 287.561119,5377.19146 C294.539028,5377.19146 298.400589,5383.15317 298.400589,5389.79234 C298.400589,5396.49926 294.539028,5402.46097 287.561119,5402.46097 L287.561119,5402.46097 Z M328.194076,5407 C338.152839,5407 344.385534,5399.27688 344.385534,5389.79234 C344.385534,5380.30781 338.152839,5372.65243 328.194076,5372.65243 C318.235313,5372.65243 312.002618,5380.30781 312.002618,5389.79234 C312.002618,5399.27688 318.235313,5407 328.194076,5407 L328.194076,5407 Z M328.194076,5402.46097 C321.216168,5402.46097 317.354606,5396.49926 317.354606,5389.79234 C317.354606,5383.15317 321.216168,5377.19146 328.194076,5377.19146 C335.171985,5377.19146 339.033546,5383.15317 339.033546,5389.79234 C339.033546,5396.49926 335.171985,5402.46097 328.194076,5402.46097 L328.194076,5402.46097 Z" id="boo" opacity="0.2" sketch:type="MSShapeGroup"></path>
            <path d="M145.806087,5711.2592 L145.806087,5694.81001 C147.758959,5691.65538 152.190476,5688.9514 156.697104,5688.9514 C163.982818,5688.9514 168.339224,5694.96024 168.339224,5702.99705 C168.339224,5711.03387 163.982818,5716.9676 156.697104,5716.9676 C152.190476,5716.9676 147.758959,5714.41384 145.806087,5711.2592 L145.806087,5711.2592 Z M145.806087,5721.09867 L145.806087,5715.69072 C148.510064,5719.37113 152.941581,5722 158.049092,5722 C167.513009,5722 174.19784,5714.7894 174.19784,5702.99705 C174.19784,5691.35493 167.58812,5683.919 158.049092,5683.919 C153.166912,5683.919 148.735395,5686.32253 145.806087,5690.30339 L145.806087,5671 L140.172803,5671 L140.172803,5721.09867 L145.806087,5721.09867 Z M201.296024,5722 C212.337261,5722 219.247423,5713.43741 219.247423,5702.92194 C219.247423,5692.40648 212.337261,5683.919 201.296024,5683.919 C190.254786,5683.919 183.344624,5692.40648 183.344624,5702.92194 C183.344624,5713.43741 190.254786,5722 201.296024,5722 L201.296024,5722 Z M201.296024,5716.9676 C193.559647,5716.9676 189.278351,5710.35788 189.278351,5702.92194 C189.278351,5695.56112 193.559647,5688.9514 201.296024,5688.9514 C209.032401,5688.9514 213.313697,5695.56112 213.313697,5702.92194 C213.313697,5710.35788 209.032401,5716.9676 201.296024,5716.9676 L201.296024,5716.9676 Z M246.345606,5722 C257.386843,5722 264.297005,5713.43741 264.297005,5702.92194 C264.297005,5692.40648 257.386843,5683.919 246.345606,5683.919 C235.304369,5683.919 228.394207,5692.40648 228.394207,5702.92194 C228.394207,5713.43741 235.304369,5722 246.345606,5722 L246.345606,5722 Z M246.345606,5716.9676 C238.609229,5716.9676 234.327933,5710.35788 234.327933,5702.92194 C234.327933,5695.56112 238.609229,5688.9514 246.345606,5688.9514 C254.081983,5688.9514 258.363279,5695.56112 258.363279,5702.92194 C258.363279,5710.35788 254.081983,5716.9676 246.345606,5716.9676 L246.345606,5716.9676 Z" id="boo" opacity="0.35" sketch:type="MSShapeGroup"></path>
            <path d="M544.998773,5809.78645 L544.998773,5797.20766 C546.492145,5794.79529 549.880952,5792.72754 553.327197,5792.72754 C558.898625,5792.72754 562.229995,5797.32253 562.229995,5803.46834 C562.229995,5809.61414 558.898625,5814.15169 553.327197,5814.15169 C549.880952,5814.15169 546.492145,5812.19882 544.998773,5809.78645 L544.998773,5809.78645 Z M544.998773,5817.31075 L544.998773,5813.17526 C547.066519,5815.98969 550.455326,5818 554.36107,5818 C561.598184,5818 566.710113,5812.48601 566.710113,5803.46834 C566.710113,5794.56554 561.655621,5788.87923 554.36107,5788.87923 C550.627639,5788.87923 547.238832,5790.71723 544.998773,5793.76141 L544.998773,5779 L540.690967,5779 L540.690967,5817.31075 L544.998773,5817.31075 Z M587.432253,5818 C595.875552,5818 601.159794,5811.45214 601.159794,5803.4109 C601.159794,5795.36966 595.875552,5788.87923 587.432253,5788.87923 C578.988954,5788.87923 573.704713,5795.36966 573.704713,5803.4109 C573.704713,5811.45214 578.988954,5818 587.432253,5818 L587.432253,5818 Z M587.432253,5814.15169 C581.5162,5814.15169 578.242268,5809.0972 578.242268,5803.4109 C578.242268,5797.78203 581.5162,5792.72754 587.432253,5792.72754 C593.348306,5792.72754 596.622239,5797.78203 596.622239,5803.4109 C596.622239,5809.0972 593.348306,5814.15169 587.432253,5814.15169 L587.432253,5814.15169 Z M621.881934,5818 C630.325233,5818 635.609475,5811.45214 635.609475,5803.4109 C635.609475,5795.36966 630.325233,5788.87923 621.881934,5788.87923 C613.438635,5788.87923 608.154394,5795.36966 608.154394,5803.4109 C608.154394,5811.45214 613.438635,5818 621.881934,5818 L621.881934,5818 Z M621.881934,5814.15169 C615.965881,5814.15169 612.691949,5809.0972 612.691949,5803.4109 C612.691949,5797.78203 615.965881,5792.72754 621.881934,5792.72754 C627.797987,5792.72754 631.071919,5797.78203 631.071919,5803.4109 C631.071919,5809.0972 627.797987,5814.15169 621.881934,5814.15169 L621.881934,5814.15169 Z" id="boo" opacity="0.6" sketch:type="MSShapeGroup"></path>
            <path d="M150.741859,6421.41679 L150.741859,6403.67747 C152.847897,6400.27541 157.626984,6397.35935 162.487072,6397.35935 C170.344215,6397.35935 175.042301,6403.83947 175.042301,6412.50663 C175.042301,6421.17378 170.344215,6427.5729 162.487072,6427.5729 C157.626984,6427.5729 152.847897,6424.81885 150.741859,6421.41679 L150.741859,6421.41679 Z M150.741859,6432.02798 L150.741859,6426.19588 C153.657912,6430.16495 158.436999,6433 163.945099,6433 C174.151285,6433 181.360416,6425.22386 181.360416,6412.50663 C181.360416,6399.9514 174.232286,6391.93225 163.945099,6391.93225 C158.680003,6391.93225 153.900916,6394.5243 150.741859,6398.81738 L150.741859,6378 L144.666748,6378 L144.666748,6432.02798 L150.741859,6432.02798 Z M210.583947,6433 C222.491163,6433 229.943299,6423.76583 229.943299,6412.42563 C229.943299,6401.08542 222.491163,6391.93225 210.583947,6391.93225 C198.67673,6391.93225 191.224595,6401.08542 191.224595,6412.42563 C191.224595,6423.76583 198.67673,6433 210.583947,6433 L210.583947,6433 Z M210.583947,6427.5729 C202.240795,6427.5729 197.623711,6420.44477 197.623711,6412.42563 C197.623711,6404.48748 202.240795,6397.35935 210.583947,6397.35935 C218.927099,6397.35935 223.544183,6404.48748 223.544183,6412.42563 C223.544183,6420.44477 218.927099,6427.5729 210.583947,6427.5729 L210.583947,6427.5729 Z M259.16683,6433 C271.074047,6433 278.526182,6423.76583 278.526182,6412.42563 C278.526182,6401.08542 271.074047,6391.93225 259.16683,6391.93225 C247.259614,6391.93225 239.807478,6401.08542 239.807478,6412.42563 C239.807478,6423.76583 247.259614,6433 259.16683,6433 L259.16683,6433 Z M259.16683,6427.5729 C250.823679,6427.5729 246.206595,6420.44477 246.206595,6412.42563 C246.206595,6404.48748 250.823679,6397.35935 259.16683,6397.35935 C267.509982,6397.35935 272.127066,6404.48748 272.127066,6412.42563 C272.127066,6420.44477 267.509982,6427.5729 259.16683,6427.5729 L259.16683,6427.5729 Z" id="boo" opacity="0.2" sketch:type="MSShapeGroup"></path>
            <path d="M549.293487,6519.73343 L549.293487,6505.54197 C550.978318,6502.82032 554.801587,6500.48748 558.689658,6500.48748 C564.975372,6500.48748 568.733841,6505.67158 568.733841,6512.6053 C568.733841,6519.53903 564.975372,6524.65832 558.689658,6524.65832 C554.801587,6524.65832 550.978318,6522.45508 549.293487,6519.73343 L549.293487,6519.73343 Z M549.293487,6528.22239 L549.293487,6523.5567 C551.62633,6526.73196 555.449599,6529 559.856079,6529 C568.021028,6529 573.788333,6522.77909 573.788333,6512.6053 C573.788333,6502.56112 568.085829,6496.1458 559.856079,6496.1458 C555.644003,6496.1458 551.820733,6498.21944 549.293487,6501.6539 L549.293487,6485 L544.433399,6485 L544.433399,6528.22239 L549.293487,6528.22239 Z M597.167158,6529 C606.692931,6529 612.654639,6521.61267 612.654639,6512.5405 C612.654639,6503.46834 606.692931,6496.1458 597.167158,6496.1458 C587.641384,6496.1458 581.679676,6503.46834 581.679676,6512.5405 C581.679676,6521.61267 587.641384,6529 597.167158,6529 L597.167158,6529 Z M597.167158,6524.65832 C590.492636,6524.65832 586.798969,6518.95582 586.798969,6512.5405 C586.798969,6506.18999 590.492636,6500.48748 597.167158,6500.48748 C603.841679,6500.48748 607.535346,6506.18999 607.535346,6512.5405 C607.535346,6518.95582 603.841679,6524.65832 597.167158,6524.65832 L597.167158,6524.65832 Z M636.033464,6529 C645.559237,6529 651.520946,6521.61267 651.520946,6512.5405 C651.520946,6503.46834 645.559237,6496.1458 636.033464,6496.1458 C626.507691,6496.1458 620.545983,6503.46834 620.545983,6512.5405 C620.545983,6521.61267 626.507691,6529 636.033464,6529 L636.033464,6529 Z M636.033464,6524.65832 C629.358943,6524.65832 625.665276,6518.95582 625.665276,6512.5405 C625.665276,6506.18999 629.358943,6500.48748 636.033464,6500.48748 C642.707986,6500.48748 646.401653,6506.18999 646.401653,6512.5405 C646.401653,6518.95582 642.707986,6524.65832 636.033464,6524.65832 L636.033464,6524.65832 Z" id="boo" opacity="0.45" sketch:type="MSShapeGroup"></path>
            <path d="M553.088202,7228.68041 L553.088202,7212.87629 C554.96449,7209.84536 559.222222,7207.24742 563.552119,7207.24742 C570.552119,7207.24742 574.737686,7213.02062 574.737686,7220.74227 C574.737686,7228.46392 570.552119,7234.16495 563.552119,7234.16495 C559.222222,7234.16495 554.96449,7231.71134 553.088202,7228.68041 L553.088202,7228.68041 Z M553.088202,7238.13402 L553.088202,7232.93814 C555.68614,7236.47423 559.943872,7239 564.851088,7239 C573.943872,7239 580.366552,7232.07216 580.366552,7220.74227 C580.366552,7209.5567 574.016037,7202.41237 564.851088,7202.41237 C560.160367,7202.41237 555.902635,7204.72165 553.088202,7208.54639 L553.088202,7190 L547.67583,7190 L547.67583,7238.13402 L553.088202,7238.13402 Z M606.402062,7239 C617.010309,7239 623.649485,7230.7732 623.649485,7220.6701 C623.649485,7210.56701 617.010309,7202.41237 606.402062,7202.41237 C595.793814,7202.41237 589.154639,7210.56701 589.154639,7220.6701 C589.154639,7230.7732 595.793814,7239 606.402062,7239 L606.402062,7239 Z M606.402062,7234.16495 C598.969072,7234.16495 594.85567,7227.81443 594.85567,7220.6701 C594.85567,7213.59794 598.969072,7207.24742 606.402062,7207.24742 C613.835052,7207.24742 617.948454,7213.59794 617.948454,7220.6701 C617.948454,7227.81443 613.835052,7234.16495 606.402062,7234.16495 L606.402062,7234.16495 Z M649.684994,7239 C660.293242,7239 666.932417,7230.7732 666.932417,7220.6701 C666.932417,7210.56701 660.293242,7202.41237 649.684994,7202.41237 C639.076747,7202.41237 632.437572,7210.56701 632.437572,7220.6701 C632.437572,7230.7732 639.076747,7239 649.684994,7239 L649.684994,7239 Z M649.684994,7234.16495 C642.252005,7234.16495 638.138603,7227.81443 638.138603,7220.6701 C638.138603,7213.59794 642.252005,7207.24742 649.684994,7207.24742 C657.117984,7207.24742 661.231386,7213.59794 661.231386,7220.6701 C661.231386,7227.81443 657.117984,7234.16495 649.684994,7234.16495 L649.684994,7234.16495 Z" id="boo" opacity="0.2" sketch:type="MSShapeGroup"></path>
        </g>
    </g>
</svg>