<?xml version="1.0" encoding="UTF-8" standalone="no"?>
<svg width="750px" height="7500px" viewBox="0 0 750 7500" version="1.1" xmlns="http://www.w3.org/2000/svg" xmlns:xlink="http://www.w3.org/1999/xlink" xmlns:sketch="http://www.bohemiancoding.com/sketch/ns">
    <!-- Generator: Sketch Beta 3.4 (15009) - http://www.bohemiancoding.com/sketch -->
    <title>Artboard 6 Copy</title>
    <desc>Created with Sketch Beta.</desc>
    <defs></defs>
    <g id="Page-1" stroke="none" stroke-width="1" fill="none" fill-rule="evenodd" sketch:type="MSPage">
        <g id="Artboard-6-Copy" sketch:type="MSArtboardGroup" fill="#FFFFFF">
            <path d="M574.91676,1305 C568.62232,1305 566.5,1310.61119 566.5,1310.61119 C566.5,1310.61119 564.38027,1305 558.08324,1305 C551.79065,1305 548,1311.02555 548,1315.99196 C548,1324.31491 566.5,1337 566.5,1337 C566.5,1337 585,1324.31788 585,1315.99345 C585,1311.02555 581.2112,1305 574.91676,1305 L574.91676,1305 Z" id="Shape-Copy-15" opacity="0.85" sketch:type="MSShapeGroup"></path>
            <path d="M586.28164,2010 C578.96648,2010 576.5,2016.48793 576.5,2016.48793 C576.5,2016.48793 574.03653,2010 566.71836,2010 C559.40535,2010 555,2016.96704 555,2022.70946 C555,2032.33286 576.5,2047 576.5,2047 C576.5,2047 598,2032.3363 598,2022.71118 C598,2016.96704 593.5968,2010 586.28164,2010 L586.28164,2010 Z" id="Shape-Copy-15" opacity="0.748833955" sketch:type="MSShapeGroup"></path>
            <path d="M247.64196,1886 C243.04872,1886 241.5,1890.03304 241.5,1890.03304 C241.5,1890.03304 239.95317,1886 235.35804,1886 C230.76615,1886 228,1890.33086 228,1893.90047 C228,1899.88259 241.5,1909 241.5,1909 C241.5,1909 255,1899.88473 255,1893.90154 C255,1890.33086 252.2352,1886 247.64196,1886 L247.64196,1886 Z" id="Shape-Copy-16" sketch:type="MSShapeGroup"></path>
            <path d="M173.7366,2840 C166.0812,2840 163.5,2846.66328 163.5,2846.66328 C163.5,2846.66328 160.92195,2840 153.2634,2840 C145.61025,2840 141,2847.15534 141,2853.05296 C141,2862.93645 163.5,2878 163.5,2878 C163.5,2878 186,2862.93998 186,2853.05472 C186,2847.15534 181.392,2840 173.7366,2840 L173.7366,2840 Z" id="Shape-Copy-15" sketch:type="MSShapeGroup"></path>
            <path d="M597.91904,2714 C589.75328,2714 587,2721.36468 587,2721.36468 C587,2721.36468 584.25008,2714 576.08096,2714 C567.9176,2714 563,2721.90853 563,2728.42695 C563,2739.35082 587,2756 587,2756 C587,2756 611,2739.35472 611,2728.4289 C611,2721.90853 606.0848,2714 597.91904,2714 L597.91904,2714 Z" id="Shape-Copy-16" opacity="0.5" sketch:type="MSShapeGroup"></path>
            <path d="M259.27936,2581 C253.83552,2581 252,2585.90979 252,2585.90979 C252,2585.90979 250.16672,2581 244.72064,2581 C239.2784,2581 236,2586.27236 236,2590.61797 C236,2597.90054 252,2609 252,2609 C252,2609 268,2597.90314 268,2590.61927 C268,2586.27236 264.7232,2581 259.27936,2581 L259.27936,2581 Z" id="Shape-Copy-17" opacity="0.800000012" sketch:type="MSShapeGroup"></path>
            <path d="M184.64652,3548 C176.31064,3548 173.5,3555.36468 173.5,3555.36468 C173.5,3555.36468 170.69279,3548 162.35348,3548 C154.02005,3548 149,3555.90853 149,3562.42695 C149,3573.35082 173.5,3590 173.5,3590 C173.5,3590 198,3573.35472 198,3562.4289 C198,3555.90853 192.9824,3548 184.64652,3548 L184.64652,3548 Z" id="Shape-Copy-15" opacity="0.9" sketch:type="MSShapeGroup"></path>
            <path d="M610.0114,3418 C600.6548,3418 597.5,3426.41678 597.5,3426.41678 C597.5,3426.41678 594.34905,3418 584.9886,3418 C575.63475,3418 570,3427.03832 570,3434.48795 C570,3446.97236 597.5,3466 597.5,3466 C597.5,3466 625,3446.97682 625,3434.49018 C625,3427.03832 619.368,3418 610.0114,3418 L610.0114,3418 Z" id="Shape-Copy-16" opacity="0.35" sketch:type="MSShapeGroup"></path>
            <path d="M269.64424,3275 C263.17968,3275 261,3280.78654 261,3280.78654 C261,3280.78654 258.82298,3275 252.35576,3275 C245.8931,3275 242,3281.21385 242,3286.33546 C242,3294.9185 261,3308 261,3308 C261,3308 280,3294.92156 280,3286.337 C280,3281.21385 276.1088,3275 269.64424,3275 L269.64424,3275 Z" id="Shape-Copy-17" opacity="0.699999988" sketch:type="MSShapeGroup"></path>
            <path d="M194.82896,4255 C185.98272,4255 183,4262.89073 183,4262.89073 C183,4262.89073 180.02092,4255 171.17104,4255 C162.3274,4255 157,4263.47343 157,4270.45745 C157,4282.16159 183,4300 183,4300 C183,4300 209,4282.16577 209,4270.45954 C209,4263.47343 203.6752,4255 194.82896,4255 L194.82896,4255 Z" id="Shape-Copy-15" opacity="0.65" sketch:type="MSShapeGroup"></path>
            <path d="M499.73432,4368 C493.95024,4368 492,4373.08514 492,4373.08514 C492,4373.08514 490.05214,4368 484.26568,4368 C478.4833,4368 475,4373.46065 475,4377.96147 C475,4385.50413 492,4397 492,4397 C492,4397 509,4385.50683 509,4377.96281 C509,4373.46065 505.5184,4368 499.73432,4368 L499.73432,4368 Z" id="Shape-Copy-16" sketch:type="MSShapeGroup"></path>
            <path d="M620.6488,4124 C610.4416,4124 607,4133.11818 607,4133.11818 C607,4133.11818 603.5626,4124 593.3512,4124 C583.147,4124 577,4133.79152 577,4141.86194 C577,4155.38672 607,4176 607,4176 C607,4176 637,4155.39155 637,4141.86436 C637,4133.79152 630.856,4124 620.6488,4124 L620.6488,4124 Z" id="Shape-Copy-17" opacity="0.2" sketch:type="MSShapeGroup"></path>
            <path d="M281.28164,3971 C273.96648,3971 271.5,3977.48793 271.5,3977.48793 C271.5,3977.48793 269.03653,3971 261.71836,3971 C254.40535,3971 250,3977.96704 250,3983.70946 C250,3993.33286 271.5,4008 271.5,4008 C271.5,4008 293,3993.3363 293,3983.71118 C293,3977.96704 288.5968,3971 281.28164,3971 L281.28164,3971 Z" id="Shape-Copy-18" opacity="0.5" sketch:type="MSShapeGroup"></path>
            <path d="M510.0992,5074 C503.2944,5074 501,5079.96189 501,5079.96189 C501,5079.96189 498.7084,5074 491.9008,5074 C485.098,5074 481,5080.40215 481,5085.67896 C481,5094.52209 501,5108 501,5108 C501,5108 521,5094.52525 521,5085.68054 C521,5080.40215 516.904,5074 510.0992,5074 L510.0992,5074 Z" id="Shape-Copy-15" opacity="0.748833955" sketch:type="MSShapeGroup"></path>
            <path d="M205.73888,4963 C196.21216,4963 193,4971.41678 193,4971.41678 C193,4971.41678 189.79176,4963 180.26112,4963 C170.7372,4963 165,4972.03832 165,4979.48795 C165,4991.97236 193,5011 193,5011 C193,5011 221,4991.97682 221,4979.49018 C221,4972.03832 215.2656,4963 205.73888,4963 L205.73888,4963 Z" id="Shape-Copy-16" opacity="0.5" sketch:type="MSShapeGroup"></path>
            <path d="M291.91904,4666 C283.75328,4666 281,4673.18933 281,4673.18933 C281,4673.18933 278.25008,4666 270.08096,4666 C261.9176,4666 257,4673.72024 257,4680.08345 C257,4690.74722 281,4707 281,4707 C281,4707 305,4690.75103 305,4680.08536 C305,4673.72024 300.0848,4666 291.91904,4666 L291.91904,4666 Z" id="Shape-Copy-17" opacity="0.4" sketch:type="MSShapeGroup"></path>
            <path d="M521.7366,5779 C514.0812,5779 511.5,5785.83863 511.5,5785.83863 C511.5,5785.83863 508.92195,5779 501.2634,5779 C493.61025,5779 489,5786.34364 489,5792.39646 C489,5802.54004 511.5,5818 511.5,5818 C511.5,5818 534,5802.54367 534,5792.39827 C534,5786.34364 529.392,5779 521.7366,5779 L521.7366,5779 Z" id="Shape-Copy-15" opacity="0.6" sketch:type="MSShapeGroup"></path>
            <path d="M217.6488,5671 C207.4416,5671 204,5679.94283 204,5679.94283 C204,5679.94283 200.5626,5671 190.3512,5671 C180.147,5671 174,5680.60322 174,5688.51844 C174,5701.78313 204,5722 204,5722 C204,5722 234,5701.78787 234,5688.52081 C234,5680.60322 227.856,5671 217.6488,5671 L217.6488,5671 Z" id="Shape-Copy-16" opacity="0.35" sketch:type="MSShapeGroup"></path>
            <path d="M302.28392,5361 C293.09744,5361 290,5369.06608 290,5369.06608 C290,5369.06608 286.90634,5361 277.71608,5361 C268.5323,5361 263,5369.66173 263,5376.80095 C263,5388.76518 290,5407 290,5407 C290,5407 317,5388.76945 317,5376.80308 C317,5369.66173 311.4704,5361 302.28392,5361 L302.28392,5361 Z" id="Shape-Copy-17" opacity="0.2" sketch:type="MSShapeGroup"></path>
            <path d="M533.10148,6485 C524.42536,6485 521.5,6492.71538 521.5,6492.71538 C521.5,6492.71538 518.57821,6485 509.89852,6485 C501.22495,6485 496,6493.28513 496,6500.11395 C496,6511.558 521.5,6529 521.5,6529 C521.5,6529 547,6511.56208 547,6500.11599 C547,6493.28513 541.7776,6485 533.10148,6485 L533.10148,6485 Z" id="Shape-Copy-15" opacity="0.45" sketch:type="MSShapeGroup"></path>
            <path d="M227.83124,6378 C217.11368,6378 213.5,6387.64423 213.5,6387.64423 C213.5,6387.64423 209.89073,6378 199.16876,6378 C188.45435,6378 182,6388.35641 182,6396.89244 C182,6411.1975 213.5,6433 213.5,6433 C213.5,6433 245,6411.20261 245,6396.89499 C245,6388.35641 238.5488,6378 227.83124,6378 L227.83124,6378 Z" id="Shape-Copy-16" opacity="0.2" sketch:type="MSShapeGroup"></path>
            <path d="M543.73888,7190 C534.21216,7190 531,7198.59213 531,7198.59213 C531,7198.59213 527.79176,7190 518.26112,7190 C508.7372,7190 503,7199.22662 503,7206.83144 C503,7219.57595 531,7239 531,7239 C531,7239 559,7219.5805 559,7206.83372 C559,7199.22662 553.2656,7190 543.73888,7190 L543.73888,7190 Z" id="Shape-Copy-15" opacity="0.2" sketch:type="MSShapeGroup"></path>
        </g>
    </g>
</svg>