<?xml version="1.0" encoding="UTF-8" standalone="no"?>
<svg width="750px" height="7500px" viewBox="0 0 750 7500" version="1.1" xmlns="http://www.w3.org/2000/svg" xmlns:xlink="http://www.w3.org/1999/xlink" xmlns:sketch="http://www.bohemiancoding.com/sketch/ns">
    <!-- Generator: Sketch Beta 3.4 (15009) - http://www.bohemiancoding.com/sketch -->
    <title>Artboard 6 Copy 2</title>
    <desc>Created with Sketch Beta.</desc>
    <defs></defs>
    <g id="Page-1" stroke="none" stroke-width="1" fill="none" fill-rule="evenodd" sketch:type="MSPage">
        <g id="Artboard-6-Copy-2" sketch:type="MSArtboardGroup" fill="#FFFFFF">
            <path d="M577.20397,1330.97761 L577.20397,1328.25081 L565.966253,1328.25081 L577.03871,1313.37736 L577.03871,1311.02239 L562,1311.02239 L562,1313.74919 L572.989826,1313.74919 L562,1328.54001 L562,1330.97761 L577.20397,1330.97761 Z M599,1330.97761 L599,1328.25081 L587.762283,1328.25081 L598.834739,1313.37736 L598.834739,1311.02239 L583.79603,1311.02239 L583.79603,1313.74919 L594.785856,1313.74919 L583.79603,1328.54001 L583.79603,1330.97761 L599,1330.97761 Z" id="zz" opacity="0.85" sketch:type="MSShapeGroup"></path>
            <path d="M586.669479,2040.0956 L586.669479,2036.92661 L573.609429,2036.92661 L586.477419,2019.64125 L586.477419,2016.9044 L569,2016.9044 L569,2020.07339 L581.77196,2020.07339 L569,2037.26272 L569,2040.0956 L586.669479,2040.0956 Z M612,2040.0956 L612,2036.92661 L598.93995,2036.92661 L611.80794,2019.64125 L611.80794,2016.9044 L594.330521,2016.9044 L594.330521,2020.07339 L607.102481,2020.07339 L594.330521,2037.26272 L594.330521,2040.0956 L612,2040.0956 Z" id="zz" opacity="0.75" sketch:type="MSShapeGroup"></path>
            <path d="M253.094789,1904.78096 L253.094789,1902.79113 L244.894293,1902.79113 L252.974194,1891.93753 L252.974194,1890.21904 L242,1890.21904 L242,1892.20887 L250.019603,1892.20887 L242,1903.00217 L242,1904.78096 L253.094789,1904.78096 Z M269,1904.78096 L269,1902.79113 L260.799504,1902.79113 L268.879404,1891.93753 L268.879404,1890.21904 L257.905211,1890.21904 L257.905211,1892.20887 L265.924814,1892.20887 L257.905211,1903.00217 L257.905211,1904.78096 L269,1904.78096 Z" id="zz" sketch:type="MSShapeGroup"></path>
            <path d="M263.14938,2603.62928 L263.14938,2601.27097 L253.430273,2601.27097 L263.006452,2588.40744 L263.006452,2586.37072 L250,2586.37072 L250,2588.72903 L259.504715,2588.72903 L250,2601.52109 L250,2603.62928 L263.14938,2603.62928 Z M282,2603.62928 L282,2601.27097 L272.280893,2601.27097 L281.857072,2588.40744 L281.857072,2586.37072 L268.85062,2586.37072 L268.85062,2588.72903 L278.355335,2588.72903 L268.85062,2601.52109 L268.85062,2603.62928 L282,2603.62928 Z" id="zz" opacity="0.8" sketch:type="MSShapeGroup"></path>
            <path d="M596.724069,2747.94392 L596.724069,2744.40645 L582.145409,2744.40645 L596.509677,2725.11117 L596.509677,2722.05608 L577,2722.05608 L577,2725.59355 L591.257072,2725.59355 L577,2744.78164 L577,2747.94392 L596.724069,2747.94392 Z M625,2747.94392 L625,2744.40645 L610.42134,2744.40645 L624.785608,2725.11117 L624.785608,2722.05608 L605.275931,2722.05608 L605.275931,2725.59355 L619.533002,2725.59355 L605.275931,2744.78164 L605.275931,2747.94392 L625,2747.94392 Z" id="zz" opacity="0.5" sketch:type="MSShapeGroup"></path>
            <path d="M173.491315,2871.13493 L173.491315,2867.81855 L159.823821,2867.81855 L173.290323,2849.72922 L173.290323,2846.86507 L155,2846.86507 L155,2850.18145 L168.366005,2850.18145 L155,2868.17029 L155,2871.13493 L173.491315,2871.13493 Z M200,2871.13493 L200,2867.81855 L186.332506,2867.81855 L199.799007,2849.72922 L199.799007,2846.86507 L181.508685,2846.86507 L181.508685,2850.18145 L194.87469,2850.18145 L181.508685,2868.17029 L181.508685,2871.13493 L200,2871.13493 Z" id="zz" sketch:type="MSShapeGroup"></path>
            <path d="M271.614888,3301.74727 L271.614888,3298.94677 L260.073449,3298.94677 L271.445161,3283.67134 L271.445161,3281.25273 L256,3281.25273 L256,3284.05323 L267.286849,3284.05323 L256,3299.2438 L256,3301.74727 L271.614888,3301.74727 Z M294,3301.74727 L294,3298.94677 L282.458561,3298.94677 L293.830273,3283.67134 L293.830273,3281.25273 L278.385112,3281.25273 L278.385112,3284.05323 L289.67196,3284.05323 L278.385112,3299.2438 L278.385112,3301.74727 L294,3301.74727 Z" id="zz" opacity="0.7" sketch:type="MSShapeGroup"></path>
            <path d="M606.600496,3456.83158 L606.600496,3452.77823 L589.895782,3452.77823 L606.354839,3430.66904 L606.354839,3427.16842 L584,3427.16842 L584,3431.22177 L600.336228,3431.22177 L584,3453.20813 L584,3456.83158 L606.600496,3456.83158 Z M639,3456.83158 L639,3452.77823 L622.295285,3452.77823 L638.754342,3430.66904 L638.754342,3427.16842 L616.399504,3427.16842 L616.399504,3431.22177 L632.735732,3431.22177 L616.399504,3453.20813 L616.399504,3456.83158 L639,3456.83158 Z" id="zz" opacity="0.35" sketch:type="MSShapeGroup"></path>
            <path d="M183.134988,3582.21359 L183.134988,3578.60242 L168.252605,3578.60242 L182.916129,3558.90515 L182.916129,3555.78641 L163,3555.78641 L163,3559.39758 L177.554094,3559.39758 L163,3578.98542 L163,3582.21359 L183.134988,3582.21359 Z M212,3582.21359 L212,3578.60242 L197.117618,3578.60242 L211.781141,3558.90515 L211.781141,3555.78641 L191.865012,3555.78641 L191.865012,3559.39758 L206.419107,3559.39758 L191.865012,3578.98542 L191.865012,3582.21359 L212,3582.21359 Z" id="zz" opacity="0.9" sketch:type="MSShapeGroup"></path>
            <path d="M615.655087,4166.1799 L615.655087,4161.75806 L597.431762,4161.75806 L615.387097,4137.63896 L615.387097,4133.8201 L591,4133.8201 L591,4138.24194 L608.82134,4138.24194 L591,4162.22705 L591,4166.1799 L615.655087,4166.1799 Z M651,4166.1799 L651,4161.75806 L632.776675,4161.75806 L650.73201,4137.63896 L650.73201,4133.8201 L626.344913,4133.8201 L626.344913,4138.24194 L644.166253,4138.24194 L626.344913,4162.22705 L626.344913,4166.1799 L651,4166.1799 Z" id="zz" opacity="0.2" sketch:type="MSShapeGroup"></path>
            <path d="M281.669479,4001.0956 L281.669479,3997.92661 L268.609429,3997.92661 L281.477419,3980.64125 L281.477419,3977.9044 L264,3977.9044 L264,3981.07339 L276.77196,3981.07339 L264,3998.26272 L264,4001.0956 L281.669479,4001.0956 Z M307,4001.0956 L307,3997.92661 L293.93995,3997.92661 L306.80794,3980.64125 L306.80794,3977.9044 L289.330521,3977.9044 L289.330521,3981.07339 L302.102481,3981.07339 L289.330521,3998.26272 L289.330521,4001.0956 L307,4001.0956 Z" id="zz" opacity="0.5" sketch:type="MSShapeGroup"></path>
            <path d="M192.367742,4291.52258 L192.367742,4287.69032 L176.574194,4287.69032 L192.135484,4266.7871 L192.135484,4263.47742 L171,4263.47742 L171,4267.30968 L186.445161,4267.30968 L171,4288.09677 L171,4291.52258 L192.367742,4291.52258 Z M223,4291.52258 L223,4287.69032 L207.206452,4287.69032 L222.767742,4266.7871 L222.767742,4263.47742 L201.632258,4263.47742 L201.632258,4267.30968 L217.077419,4267.30968 L201.632258,4288.09677 L201.632258,4291.52258 L223,4291.52258 Z" id="zz" opacity="0.65" sketch:type="MSShapeGroup"></path>
            <path d="M537.971216,4391.66861 L537.971216,4389.1629 L527.644665,4389.1629 L537.819355,4375.49541 L537.819355,4373.33139 L524,4373.33139 L524,4375.8371 L534.098759,4375.8371 L524,4389.42866 L524,4391.66861 L537.971216,4391.66861 Z M558,4391.66861 L558,4389.1629 L547.673449,4389.1629 L557.848139,4375.49541 L557.848139,4373.33139 L544.028784,4373.33139 L544.028784,4375.8371 L554.127543,4375.8371 L544.028784,4389.42866 L544.028784,4391.66861 L558,4391.66861 Z" id="zz" sketch:type="MSShapeGroup"></path>
            <path d="M290.724069,4699.44392 L290.724069,4695.90645 L276.145409,4695.90645 L290.509677,4676.61117 L290.509677,4673.55608 L271,4673.55608 L271,4677.09355 L285.257072,4677.09355 L271,4696.28164 L271,4699.44392 L290.724069,4699.44392 Z M319,4699.44392 L319,4695.90645 L304.42134,4695.90645 L318.785608,4676.61117 L318.785608,4673.55608 L299.275931,4673.55608 L299.275931,4677.09355 L313.533002,4677.09355 L299.275931,4696.28164 L299.275931,4699.44392 L319,4699.44392 Z" id="zz" opacity="0.4" sketch:type="MSShapeGroup"></path>
            <path d="M546.436725,5101.7866 L546.436725,5098.83871 L534.287841,5098.83871 L546.258065,5082.75931 L546.258065,5080.2134 L530,5080.2134 L530,5083.16129 L541.880893,5083.16129 L530,5099.15136 L530,5101.7866 L546.436725,5101.7866 Z M570,5101.7866 L570,5098.83871 L557.851117,5098.83871 L569.82134,5082.75931 L569.82134,5080.2134 L553.563275,5080.2134 L553.563275,5083.16129 L565.444169,5083.16129 L553.563275,5099.15136 L553.563275,5101.7866 L570,5101.7866 Z" id="zz" opacity="0.75" sketch:type="MSShapeGroup"></path>
            <path d="M202.011414,5002.10124 L202.011414,4997.97419 L185.002978,4997.97419 L201.76129,4975.46303 L201.76129,4971.89876 L179,4971.89876 L179,4976.02581 L195.633251,4976.02581 L179,4998.41191 L179,5002.10124 L202.011414,5002.10124 Z M235,5002.10124 L235,4997.97419 L217.991563,4997.97419 L234.749876,4975.46303 L234.749876,4971.89876 L211.988586,4971.89876 L211.988586,4976.02581 L228.621836,4976.02581 L211.988586,4998.41191 L211.988586,5002.10124 L235,5002.10124 Z" id="zz" opacity="0.5" sketch:type="MSShapeGroup"></path>
            <path d="M299.189578,5398.56191 L299.189578,5394.58226 L282.788586,5394.58226 L298.948387,5372.87506 L298.948387,5369.43809 L277,5369.43809 L277,5373.41774 L293.039206,5373.41774 L277,5395.00434 L277,5398.56191 L299.189578,5398.56191 Z M331,5398.56191 L331,5394.58226 L314.599007,5394.58226 L330.758809,5372.87506 L330.758809,5369.43809 L308.810422,5369.43809 L308.810422,5373.41774 L324.849628,5373.41774 L308.810422,5395.00434 L308.810422,5398.56191 L331,5398.56191 Z" id="zz" opacity="0.2" sketch:type="MSShapeGroup"></path>
            <path d="M556.491315,5810.63493 L556.491315,5807.31855 L542.823821,5807.31855 L556.290323,5789.22922 L556.290323,5786.36507 L538,5786.36507 L538,5789.68145 L551.366005,5789.68145 L538,5807.67029 L538,5810.63493 L556.491315,5810.63493 Z M583,5810.63493 L583,5807.31855 L569.332506,5807.31855 L582.799007,5789.22922 L582.799007,5786.36507 L564.508685,5786.36507 L564.508685,5789.68145 L577.87469,5789.68145 L564.508685,5807.67029 L564.508685,5810.63493 L583,5810.63493 Z" id="zz" opacity="0.6" sketch:type="MSShapeGroup"></path>
            <path d="M212.655087,5712.6799 L212.655087,5708.25806 L194.431762,5708.25806 L212.387097,5684.13896 L212.387097,5680.3201 L188,5680.3201 L188,5684.74194 L205.82134,5684.74194 L188,5708.72705 L188,5712.6799 L212.655087,5712.6799 Z M248,5712.6799 L248,5708.25806 L229.776675,5708.25806 L247.73201,5684.13896 L247.73201,5680.3201 L223.344913,5680.3201 L223.344913,5684.74194 L241.166253,5684.74194 L223.344913,5708.72705 L223.344913,5712.6799 L248,5712.6799 Z" id="zz" opacity="0.35" sketch:type="MSShapeGroup"></path>
            <path d="M565.956824,6520.75292 L565.956824,6516.99435 L550.466998,6516.99435 L565.729032,6496.49311 L565.729032,6493.24708 L545,6493.24708 L545,6497.00565 L560.148139,6497.00565 L545,6517.39299 L545,6520.75292 L565.956824,6520.75292 Z M596,6520.75292 L596,6516.99435 L580.510174,6516.99435 L595.772208,6496.49311 L595.772208,6493.24708 L575.043176,6493.24708 L575.043176,6497.00565 L590.191315,6497.00565 L575.043176,6517.39299 L575.043176,6520.75292 L596,6520.75292 Z" id="zz" opacity="0.45" sketch:type="MSShapeGroup"></path>
            <path d="M221.887841,6422.4889 L221.887841,6417.84597 L202.75335,6417.84597 L221.606452,6392.52091 L221.606452,6388.5111 L196,6388.5111 L196,6393.15403 L214.712407,6393.15403 L196,6418.3384 L196,6422.4889 L221.887841,6422.4889 Z M259,6422.4889 L259,6417.84597 L239.865509,6417.84597 L258.71861,6392.52091 L258.71861,6388.5111 L233.112159,6388.5111 L233.112159,6393.15403 L251.824566,6393.15403 L233.112159,6418.3384 L233.112159,6422.4889 L259,6422.4889 Z" id="zz" opacity="0.2" sketch:type="MSShapeGroup"></path>
            <path d="M575.011414,7229.60124 L575.011414,7225.47419 L558.002978,7225.47419 L574.76129,7202.96303 L574.76129,7199.39876 L552,7199.39876 L552,7203.52581 L568.633251,7203.52581 L552,7225.91191 L552,7229.60124 L575.011414,7229.60124 Z M608,7229.60124 L608,7225.47419 L590.991563,7225.47419 L607.749876,7202.96303 L607.749876,7199.39876 L584.988586,7199.39876 L584.988586,7203.52581 L601.621836,7203.52581 L584.988586,7225.91191 L584.988586,7229.60124 L608,7229.60124 Z" id="zz" opacity="0.2" sketch:type="MSShapeGroup"></path>
        </g>
    </g>
</svg>